HIERARCHY
ROOT hip
{
  OFFSET 0 0 0
  CHANNELS 6 Xposition Yposition Zposition Zrotation Yrotation Xrotation
  JOINT abdomen
  {
    OFFSET 0 20.6881 -0.73152
    CHANNELS 3 Zrotation Xrotation Yrotation
    JOINT chest
    {
      OFFSET 0 11.7043 -0.48768
      CHANNELS 3 Zrotation Xrotation Yrotation
      JOINT neck
      {
        OFFSET 0 22.1894 -2.19456
        CHANNELS 3 Zrotation Xrotation Yrotation
        JOINT head
        {
          OFFSET -0.24384 7.07133 1.2192
          CHANNELS 3 Zrotation Xrotation Yrotation
          JOINT leftEye
          {
            OFFSET 4.14528 8.04674 8.04672
            CHANNELS 3 Zrotation Xrotation Yrotation
            End Site
            {
              OFFSET 1 0 0
            }
          }
          JOINT rightEye
          {
            OFFSET -3.6576 8.04674 8.04672
            CHANNELS 3 Zrotation Xrotation Yrotation
            End Site
            {
              OFFSET 1 0 0
            }
          }
        }
      }
      JOINT rCollar
      {
        OFFSET -2.68224 19.2634 -4.8768
        CHANNELS 3 Zrotation Xrotation Yrotation
        JOINT rShldr
        {
          OFFSET -8.77824 -1.95073 1.46304
          CHANNELS 3 Zrotation Xrotation Yrotation
          JOINT rForeArm
          {
            OFFSET -28.1742 -1.7115 0.48768
            CHANNELS 3 Zrotation Xrotation Yrotation
            JOINT rHand
            {
              OFFSET -22.5879 0.773209 7.07136
              CHANNELS 3 Zrotation Xrotation Yrotation
              JOINT rThumb1
              {
                OFFSET -1.2192 -0.487915 3.41376
                CHANNELS 3 Zrotation Xrotation Yrotation
                JOINT rThumb2
                {
                  OFFSET -3.37035 -0.52449 3.41376
                  CHANNELS 3 Zrotation Xrotation Yrotation
                  End Site
                  {
                    OFFSET -1.78271 -1.18214 1.43049
                  }
                }
              }
              JOINT rIndex1
              {
                OFFSET -7.75947 0.938293 5.60832
                CHANNELS 3 Zrotation Xrotation Yrotation
                JOINT rIndex2
                {
                  OFFSET -2.54057 -0.884171 1.56538
                  CHANNELS 3 Zrotation Xrotation Yrotation
                  End Site
                  {
                    OFFSET -1.62519 -0.234802 1.16502
                  }
                }
              }
              JOINT rMid1
              {
                OFFSET -8.24714 1.18213 3.41376
                CHANNELS 3 Zrotation Xrotation Yrotation
                JOINT rMid2
                {
                  OFFSET -3.10165 -0.590103 1.0647
                  CHANNELS 3 Zrotation Xrotation Yrotation
                  End Site
                  {
                    OFFSET -2.48547 -0.328903 0.83742
                  }
                }
              }
              JOINT rRing1
              {
                OFFSET -8.82822 0.546677 1.51678
                CHANNELS 3 Zrotation Xrotation Yrotation
                JOINT rRing2
                {
                  OFFSET -2.60934 -0.819778 -0.0198488
                  CHANNELS 3 Zrotation Xrotation Yrotation
                  End Site
                  {
                    OFFSET -2.33842 -0.294052 0.168128
                  }
                }
              }
              JOINT rPinky1
              {
                OFFSET -8.27202 -0.0477905 -0.4584
                CHANNELS 3 Zrotation Xrotation Yrotation
                JOINT rPinky2
                {
                  OFFSET -1.82734 -0.647385 -0.700984
                  CHANNELS 3 Zrotation Xrotation Yrotation
                  End Site
                  {
                    OFFSET -1.69225 -0.51767 -0.607171
                  }
                }
              }
            }
          }
        }
      }
      JOINT lCollar
      {
        OFFSET 2.68224 19.2634 -4.8768
        CHANNELS 3 Zrotation Xrotation Yrotation
        JOINT lShldr
        {
          OFFSET 8.77824 -1.95073 1.46304
          CHANNELS 3 Zrotation Xrotation Yrotation
          JOINT lForeArm
          {
            OFFSET 28.1742 -1.7115 0.48768
            CHANNELS 3 Zrotation Xrotation Yrotation
            JOINT lHand
            {
              OFFSET 22.5879 0.773209 7.07136
              CHANNELS 3 Zrotation Xrotation Yrotation
              JOINT lThumb1
              {
                OFFSET 1.2192 -0.487915 3.41376
                CHANNELS 3 Zrotation Xrotation Yrotation
                JOINT lThumb2
                {
                  OFFSET 3.37035 -0.52449 3.41376
                  CHANNELS 3 Zrotation Xrotation Yrotation
                  End Site
                  {
                    OFFSET 1.78271 -1.18214 1.43049
                  }
                }
              }
              JOINT lIndex1
              {
                OFFSET 7.75947 0.938293 5.60832
                CHANNELS 3 Zrotation Xrotation Yrotation
                JOINT lIndex2
                {
                  OFFSET 2.54057 -0.884171 1.56538
                  CHANNELS 3 Zrotation Xrotation Yrotation
                  End Site
                  {
                    OFFSET 1.62519 -0.234802 1.16502
                  }
                }
              }
              JOINT lMid1
              {
                OFFSET 8.24714 1.18213 3.41376
                CHANNELS 3 Zrotation Xrotation Yrotation
                JOINT lMid2
                {
                  OFFSET 3.10165 -0.590103 1.0647
                  CHANNELS 3 Zrotation Xrotation Yrotation
                  End Site
                  {
                    OFFSET 2.48547 -0.328903 0.83742
                  }
                }
              }
              JOINT lRing1
              {
                OFFSET 8.82822 0.546677 1.51678
                CHANNELS 3 Zrotation Xrotation Yrotation
                JOINT lRing2
                {
                  OFFSET 2.60934 -0.819778 -0.0198488
                  CHANNELS 3 Zrotation Xrotation Yrotation
                  End Site
                  {
                    OFFSET 2.33842 -0.294052 0.168128
                  }
                }
              }
              JOINT lPinky1
              {
                OFFSET 8.27202 -0.0477905 -0.4584
                CHANNELS 3 Zrotation Xrotation Yrotation
                JOINT lPinky2
                {
                  OFFSET 1.82734 -0.647385 -0.700984
                  CHANNELS 3 Zrotation Xrotation Yrotation
                  End Site
                  {
                    OFFSET 1.69225 -0.51767 -0.607171
                  }
                }
              }
            }
          }
        }
      }
    }
  }
  JOINT rButtock
  {
    OFFSET -8.77824 4.35084 1.2192
    CHANNELS 3 Zrotation Xrotation Yrotation
    JOINT rThigh
    {
      OFFSET 0 -1.70687 -2.19456
      CHANNELS 3 Zrotation Xrotation Yrotation
      JOINT rShin
      {
        OFFSET 0 -36.8199 0.73152
        CHANNELS 3 Zrotation Xrotation Yrotation
        JOINT rFoot
        {
          OFFSET 0.73152 -45.1104 -5.12064
          CHANNELS 3 Zrotation Xrotation Yrotation
          End Site
          {
            OFFSET -1.1221 -3.69964 12.103
          }
        }
      }
    }
  }
  JOINT lButtock
  {
    OFFSET 8.77824 4.35084 1.2192
    CHANNELS 3 Zrotation Xrotation Yrotation
    JOINT lThigh
    {
      OFFSET 0 -1.70687 -2.19456
      CHANNELS 3 Zrotation Xrotation Yrotation
      JOINT lShin
      {
        OFFSET 0 -36.8199 0.73152
        CHANNELS 3 Zrotation Xrotation Yrotation
        JOINT lFoot
        {
          OFFSET -0.73152 -45.1104 -5.12064
          CHANNELS 3 Zrotation Xrotation Yrotation
          End Site
          {
            OFFSET 1.1221 -3.69964 12.103
          }
        }
      }
    }
  }
}
MOTION
Frames:	4
Frame Time:	0.03333
0.009878724813461304 -10.221108794212341 -0.025778822600841522 -5.1848554611206055 3.079188108444214 5.822958469390869 -2.4033689498901367 13.988249778747559 3.4087512493133545 2.7851314544677734 -9.376729011535645 1.2099652290344238 -5.399813652038574 15.092645645141602 -4.075779914855957 8.945511817932129 -24.35739517211914 -6.047545433044434 -0.05539757385849953 0.04075820371508598 0.15225815773010254 -0.026171576231718063 -0.05081181973218918 0.033915404230356216 0.015834573656320572 -0.020093590021133423 0.06471768021583557 47.30665969848633 37.7531852722168 16.952760696411133 -27.16925811767578 -26.982755661010742 62.49777603149414 -0.11262822896242142 -8.967345237731934 -1.081195592880249 0.03920302912592888 -0.06925303488969803 0.017944028601050377 0.05145991966128349 -0.06177331507205963 0.0038913574535399675 -0.04665330424904823 -0.005003670230507851 -0.0015440144343301654 7.733889579772949 5.571422100067139 0.42353031039237976 -0.07289665937423706 -0.06127592548727989 -0.02352636493742466 2.873326063156128 0.9406405687332153 0.030298633500933647 -0.04778372868895531 0.09745480120182037 -0.0625789612531662 10.279373168945312 0.7105804085731506 0.03302915394306183 0.11946044117212296 -0.012583808042109013 0.017377275973558426 2.278909683227539 -0.7991875410079956 -0.3244563341140747 0.005280346143990755 0.03448844701051712 0.09464902430772781 -54.81639862060547 40.178184509277344 -26.733600616455078 26.518688201904297 -24.822561264038086 -58.98000717163086 0.24960273504257202 -11.563752174377441 1.690101981163025 -0.060522861778736115 0.10566356778144836 -0.052940767258405685 0.024829301983118057 -0.08358236402273178 -0.08098432421684265 0.0010411955881863832 -0.033188823610544205 0.054933056235313416 -7.822365760803223 5.499333381652832 -0.35058048367500305 0.06172195449471474 -0.033321086317300797 -0.10280737280845642 -2.9195072650909424 0.9434124827384949 -0.025264142081141472 0.06591109186410904 -0.0055947694927453995 0.07299100607633591 -10.243535041809082 0.7543752789497375 -0.06753456592559814 0.027620848268270493 0.053752098232507706 0.023509010672569275 -2.253645658493042 -0.7552763819694519 0.22904056310653687 0.0275411456823349 -0.0042893304489552975 -0.02821366861462593 -23.070528030395508 -38.66183090209961 -18.754898071289062 -1.2694991827011108 63.63511276245117 2.2683355808258057 -3.5991578102111816 -11.007211685180664 -10.234636306762695 -0.1020846739411354 0.058482564985752106 -0.0741640254855156 28.644147872924805 -38.48337173461914 21.634113311767578 1.3417270183563232 64.2634048461914 -2.474483013153076 4.10859489440918 -10.656893730163574 13.82604694366455
0.019054487347602844 -10.222434997558594 -0.05475832149386406 -5.450530052185059 3.758984088897705 6.035262584686279 -2.4149787425994873 13.977190971374512 3.329667091369629 2.769209146499634 -9.373674392700195 1.128049373626709 -5.425937175750732 15.169203758239746 -4.090969562530518 8.923747062683105 -24.435754776000977 -6.033944129943848 -0.061439063400030136 0.005961174611002207 0.16594846546649933 -0.03129664063453674 -0.04515543580055237 0.03150610625743866 0.05913715437054634 -0.02405635267496109 0.08299867808818817 47.273921966552734 37.668880462646484 16.906896591186523 -27.1549072265625 -26.900449752807617 62.426082611083984 -0.16776417195796967 -8.534771919250488 -1.0491833686828613 0.05779999867081642 -0.058852601796388626 0.046313900500535965 0.049479857087135315 -0.02551356703042984 0.09663005918264389 -0.05103665962815285 -0.01439509354531765 0.0067744082771241665 7.692022800445557 5.56201171875 0.42009857296943665 -0.06823103129863739 -0.02371395006775856 0.008266382850706577 2.879270553588867 0.9015879034996033 0.013965670019388199 -0.04541660100221634 0.0913398340344429 -0.04621286317706108 10.284148216247559 0.7050735354423523 -0.015019440092146397 0.13994917273521423 0.0009996179724112153 0.04555100202560425 2.2687058448791504 -0.8036845922470093 -0.3138175904750824 0.04112444818019867 0.02612573280930519 0.10126190632581711 -55.00900650024414 40.279701232910156 -26.509130477905273 26.49852752685547 -24.80658531188965 -58.93905258178711 0.2450300008058548 -11.394783973693848 1.6860661506652832 -0.08464490622282028 0.10269588232040405 -0.07473196089267731 0.03000033088028431 -0.08981944620609283 -0.07030054926872253 -0.0031524545047432184 -0.022262979298830032 0.06642596423625946 -7.848970413208008 5.499277114868164 -0.31903019547462463 0.04233540967106819 -0.036746978759765625 -0.10102640092372894 -2.910694122314453 0.9775562286376953 -0.002836046740412712 0.09971915930509567 -0.028356915339827538 0.08423566818237305 -10.217740058898926 0.7744726538658142 -0.07142284512519836 0.04233039915561676 0.05450036749243736 0.05524778738617897 -2.2519497871398926 -0.7387800812721252 0.22625534236431122 0.019094431772828102 0.002868556883186102 -0.020810099318623543 -23.066259384155273 -38.75203323364258 -18.674463272094727 -1.307993769645691 63.51450729370117 2.306746244430542 -3.5648531913757324 -10.913784980773926 -10.28110122680664 -0.051521413028240204 0.06290597468614578 -0.07138694822788239 28.575044631958008 -38.25196075439453 21.647104263305664 1.3851144313812256 64.24652862548828 -2.5143866539001465 4.153221607208252 -10.7744779586792 13.938855171203613
-0.003327801823616028 -9.29790586233139 -0.1061631366610527 -7.289606094360352 -15.158724784851074 6.687603950500488 1.3931413888931274 13.456999778747559 13.281706809997559 -2.204784870147705 -12.326210021972656 3.353271484375 0.007207539863884449 12.526135444641113 11.081794738769531 3.5060980319976807 -22.88578224182129 22.122175216674805 -0.0638379454612732 0.11814925819635391 0.16444537043571472 -0.005335194990038872 -0.1219203770160675 -0.11325505375862122 -0.09393709152936935 0.041470006108284 -0.09591181576251984 9.510287284851074 81.18724060058594 57.1918830871582 -25.996768951416016 -45.86589431762695 95.5604248046875 -70.08807373046875 -81.87969207763672 -77.92230224609375 0.4148673713207245 -0.2746289074420929 0.052756451070308685 0.12325586378574371 -0.16629616916179657 0.04042777419090271 -0.3900768458843231 0.16178864240646362 0.15737773478031158 7.789674282073975 5.679532527923584 0.6873891949653625 -0.22614115476608276 -0.17870505154132843 -0.07394683361053467 2.9104163646698 1.070906639099121 -0.07661876827478409 0.13029295206069946 0.17701658606529236 -0.1966473013162613 10.220813751220703 0.6427058577537537 -0.13481689989566803 -0.06271450966596603 -0.0981653481721878 0.016136202961206436 2.4274137020111084 -0.8979307413101196 -0.45911872386932373 -0.155647411942482 0.1834411919116974 0.12484804540872574 -64.01746368408203 -1.8745272159576416 -39.26551055908203 28.774059295654297 -34.2454948425293 -73.8172836303711 0.22528137266635895 9.220002174377441 -1.2121695280075073 0.058174386620521545 0.1822321116924286 -0.20494906604290009 -0.07456114143133163 0.4023086428642273 -0.041147783398628235 -0.020293574780225754 -0.04922858253121376 -0.06323505938053131 -7.822267532348633 5.704086780548096 -0.2741379737854004 0.2541188895702362 -0.06551156938076019 -0.029493656009435654 -2.760822057723999 0.9541007280349731 -0.03179516643285751 -0.0353674441576004 -0.027690045535564423 0.3115307688713074 -10.294722557067871 0.47180360555648804 0.14082807302474976 0.18765495717525482 0.20956699550151825 -0.10244947671890259 -2.2777373790740967 -0.9751089215278625 0.20643597841262817 0.19441349804401398 -0.17068497836589813 -0.05267372727394104 -21.756471633911133 -38.17848587036133 -34.21302795410156 -160.4354705810547 86.7447738647461 162.38555908203125 -18.997709274291992 -31.460819244384766 -32.66463851928711 -0.05992663651704788 0.17694075405597687 -0.23486322164535522 83.18209838867188 -47.33504867553711 76.35731506347656 5.842406749725342 83.90283966064453 -5.760813236236572 -0.9321220517158508 -0.5128512382507324 -5.000899791717529
-0.011378154158592224 -9.826569259166718 -0.1970653422176838 -7.879332065582275 -16.370153427124023 6.754987716674805 1.1031030416488647 11.986347198486328 12.410242080688477 -1.182753086090088 -12.485163688659668 3.324422836303711 0.06159098073840141 12.894242286682129 10.829355239868164 3.9421403408050537 -21.204059600830078 21.737520217895508 -0.11455676704645157 0.20222538709640503 0.11507963389158249 -0.16138669848442078 0.0606263093650341 -0.048230309039354324 0.07807280123233795 0.0008598295971751213 0.12881208956241608 8.340383529663086 79.81216430664062 58.2365608215332 -26.595897674560547 -44.34666061401367 92.82376861572266 -63.933319091796875 -81.82779693603516 -71.39127349853516 0.20898373425006866 -0.24563512206077576 0.24046340584754944 -0.15838035941123962 -0.09883567690849304 0.21068717539310455 -0.3740357458591461 0.15355435013771057 -0.12101665884256363 7.564126014709473 5.671144008636475 0.6774563789367676 -0.3033124804496765 -0.20230939984321594 -0.17030476033687592 2.8061089515686035 1.0736439228057861 0.007393584121018648 -0.1817389875650406 -0.12869074940681458 -0.2527574300765991 10.157115936279297 0.6992893218994141 0.012729644775390625 -0.19036027789115906 0.030201317742466927 0.22670362889766693 2.3760104179382324 -0.8454972505569458 -0.40121757984161377 0.09700033813714981 0.3272576928138733 0.08789636939764023 -66.18292236328125 -2.5494277477264404 -38.34603500366211 28.847148895263672 -34.0023193359375 -73.71099090576172 0.011632758192718029 7.9977240562438965 -0.9557758569717407 0.09484729915857315 0.1513478308916092 -0.1403265744447708 0.03770800307393074 0.10614043474197388 -0.06897013634443283 0.11510848999023438 -0.011944619938731194 -0.09205766022205353 -7.915951251983643 5.812770843505859 -0.2414676398038864 0.2280745506286621 -0.030952220782637596 -0.2506992816925049 -2.778784990310669 0.854425847530365 -0.16629260778427124 -0.0032087599392980337 -0.10890908539295197 0.1699795126914978 -10.304594993591309 0.6061740517616272 0.20682872831821442 -0.20781362056732178 0.40248313546180725 -0.01582830585539341 -2.1476659774780273 -0.8310610055923462 0.182698592543602 0.1380876898765564 -0.1034284383058548 -0.07433518022298813 -19.127229690551758 -40.04278564453125 -32.65339279174805 -144.06922912597656 88.59137725830078 145.83493041992188 -21.307716369628906 -30.48105239868164 -32.63825607299805 0.1628495156764984 0.1973971724510193 -0.30642759799957275 85.81096649169922 -44.71160125732422 78.03956604003906 6.851940155029297 83.0849609375 -6.588552951812744 -0.020703990012407303 -2.179422378540039 -4.035404205322266
